<svg id="color_line" height="512" viewBox="0 0 74 74" width="512" xmlns="http://www.w3.org/2000/svg"
  data-name="color line">
  <path
    d="m50.583 15.3a27.2 27.2 0 0 1 14.81 24.5c0 16.41-13.31 31.36-29.73 31.36s-29.73-14.95-29.73-31.36 13.31-28.1 29.73-28.1c.54 0 1.07.01 1.6.03"
    fill="#ffa64d" />
  <path
    d="m65.39 39.8c0 16.41-13.31 31.36-29.73 31.36a28.763 28.763 0 0 1 -20.94-9.44 28 28 0 0 0 16.8 5.73c16.42 0 29.73-14.95 29.73-31.36a27.043 27.043 0 0 0 -7.07-18.54 27.055 27.055 0 0 1 11.21 22.25z"
    fill="#ff9a2c" />
  <path
    d="m35.565 21.191a.511.511 0 0 1 -.1-.01.5.5 0 0 1 -.389-.59c.1-.508 2.432-12.5-8.066-16.974a.5.5 0 0 1 .39-.917c11.257 4.794 8.681 17.963 8.654 18.1a.5.5 0 0 1 -.489.391z"
    fill="#323c6b" />
  <path
    d="m39.063 13.382a11.82 11.82 0 0 0 8.7 2.582c3.1-.206 6.27-2.458 9.208-3.472-3.257-2.431-6.584-6.154-14.344-6.426-2.58-.09-6.785 1.1-8.549 3.138.85.316 4.142 3.419 4.985 4.178z"
    fill="#6fc666" />
  <g fill="#323c6b">
    <path
      d="m46.709 16.5a11.763 11.763 0 0 1 -7.98-2.746l-.542-.495a36.121 36.121 0 0 0 -4.281-3.586.5.5 0 0 1 -.2-.8c1.825-2.1 6.1-3.415 8.944-3.31 6.761.237 10.306 3.088 13.15 5.375.5.4.985.792 1.469 1.152a.5.5 0 0 1 -.136.874 30.2 30.2 0 0 0 -3.182 1.4 17.553 17.553 0 0 1 -6.157 2.1q-.548.036-1.085.036zm-11.822-7.4a48.825 48.825 0 0 1 3.977 3.422l.535.488c2.708 2.437 6.382 2.585 8.333 2.455a16.847 16.847 0 0 0 5.788-2.006c.8-.388 1.627-.785 2.439-1.117q-.386-.3-.781-.624c-2.878-2.309-6.135-4.927-12.566-5.153a12.754 12.754 0 0 0 -7.725 2.535z" />
    <path
      d="m9.374 60.458a.5.5 0 0 1 -.409-.212 35.787 35.787 0 0 1 -4.846-9.719.5.5 0 1 1 .952-.3 34.8 34.8 0 0 0 4.711 9.443.5.5 0 0 1 -.408.788z" />
    <path
      d="m66.534 29.688a.5.5 0 0 1 -.47-.33 29.374 29.374 0 0 0 -3.689-7.067.5.5 0 1 1 .813-.581 30.357 30.357 0 0 1 3.812 7.307.5.5 0 0 1 -.3.641.507.507 0 0 1 -.166.03z" />
    <path
      d="m67.366 32.438a.5.5 0 0 1 -.483-.374l-.083-.334c-.038-.156-.075-.313-.119-.467a.5.5 0 1 1 .961-.277c.048.169.09.34.131.511l.077.314a.5.5 0 0 1 -.358.61.51.51 0 0 1 -.126.017z" />
  </g>
  <path d="m3.838 47.469q.069.329.143.656" fill="none" stroke="#323c6b" stroke-linecap="round"
    stroke-linejoin="round" />
  <path
    d="m35.664 71.66c-16.387 0-30.23-14.59-30.23-31.86 0-16.3 13-28.6 30.23-28.6.546 0 1.083.01 1.619.03a.5.5 0 0 1 .48.519.485.485 0 0 1 -.519.48c-.523-.02-1.047-.029-1.581-.029-16.663 0-29.23 11.865-29.23 27.6 0 16.728 13.386 30.86 29.23 30.86s29.23-14.132 29.23-30.86a26.773 26.773 0 0 0 -14.542-24.058.5.5 0 1 1 .466-.885 27.758 27.758 0 0 1 15.077 24.943c0 17.27-13.844 31.86-30.23 31.86z"
    fill="#323c6b" />
  <path
    d="m10.635 36.608a.65.65 0 0 1 -.642-.759 24.161 24.161 0 0 1 3.235-8.691.65.65 0 1 1 1.106.683 22.869 22.869 0 0 0 -3.061 8.226.65.65 0 0 1 -.638.541z"
    fill="#fff" />
  <path
    d="m15.351 25.9a.65.65 0 0 1 -.507-1.056q.26-.325.532-.643a.65.65 0 0 1 .986.847q-.258.3-.5.608a.65.65 0 0 1 -.511.244z"
    fill="#fff" />
</svg>
