<svg id="color_line" height="512" viewBox="0 0 74 74" width="512" xmlns="http://www.w3.org/2000/svg"
  data-name="color line">
  <path
    d="m36.758 71.65c-7.112 0-13.468-2.337-18.051-6.673-5.112-4.836-7.814-11.977-7.814-20.644 0-24.278 17.332-27.9 27.664-27.9a.65.65 0 0 1 0 1.3c-9.846 0-26.364 3.456-26.364 26.6 0 8.3 2.562 15.115 7.407 19.7 4.711 4.458 11.43 6.679 18.92 6.269.358-.034.959.2.979.558s2.233.5 1.875.516c-.674.155-4.01.274-4.616.274z"
    fill="#323c6b" />
  <path
    d="m38.557 17.73c-9.846 0-26.364 3.456-26.364 26.6 0 8.3 2.562 15.115 7.407 19.7 4.711 4.458 11.43 6.679 18.92 6.269z"
    fill="#d4ec8c" />
  <path
    d="m61.124 44.333c0 14.7-9.11 26.617-20.348 26.617s-20.349-11.917-20.349-26.617c0-17.674 9.11-27.253 20.348-27.253s20.349 9.579 20.349 27.253z"
    fill="#d4ec8c" />
  <path
    d="m61.12 44.33c0 14.7-9.11 26.62-20.34 26.62a17.554 17.554 0 0 1 -12.71-5.83 16.523 16.523 0 0 0 8.93 2.69c11.24 0 20.35-11.91 20.35-26.62 0-9.61-2.69-16.82-6.96-21.4 6.39 3.99 10.73 12.34 10.73 24.54z"
    fill="#bed86b" />
  <path
    d="m39.649 21.25a.514.514 0 0 1 -.1-.01.5.5 0 0 1 -.389-.59c.081-.394 1.878-9.674-6.232-13.129a.5.5 0 0 1 .392-.92c8.869 3.778 6.841 14.146 6.82 14.25a.5.5 0 0 1 -.491.399z"
    fill="#323c6b" />
  <path
    d="m52.269 8.33a9.228 9.228 0 0 1 -5.609 4.331c-2.316.724-5.258-.024-7.683.065.771-2.1 2.478-7.135 8.222-9.071a9.458 9.458 0 0 1 7.521.23 32.109 32.109 0 0 0 -2.451 4.445z"
    fill="#6fc666" />
  <path
    d="m44.183 13.479c-.823 0-1.663-.068-2.49-.135a23.482 23.482 0 0 0 -2.7-.12.459.459 0 0 1 -.423-.206.5.5 0 0 1 -.064-.466l.06-.164c.792-2.168 2.645-7.246 8.472-9.209a10.026 10.026 0 0 1 7.915.262.5.5 0 0 1 .1.816 29.49 29.49 0 0 0 -2.081 3.782l-.256.515a9.61 9.61 0 0 1 -5.9 4.582 8.809 8.809 0 0 1 -2.633.343zm-4.483-1.258c.682.014 1.389.071 2.078.127a13.092 13.092 0 0 0 4.738-.165 8.748 8.748 0 0 0 5.307-4.083l.252-.506c.8-1.618 1.426-2.831 1.875-3.525a9.377 9.377 0 0 0 -6.591.056c-4.985 1.684-6.786 5.756-7.659 8.096z"
    fill="#323c6b" />
  <path
    d="m40.775 71.45c-11.5 0-20.849-12.165-20.849-27.117 0-19.171 10.471-27.753 20.849-27.753s20.849 8.582 20.849 27.753c0 14.953-9.353 27.117-20.849 27.117zm0-53.87c-11.872 0-19.849 10.751-19.849 26.753 0 14.4 8.9 26.117 19.849 26.117s19.849-11.716 19.849-26.117c0-16.002-7.977-26.753-19.849-26.753z"
    fill="#323c6b" />
  <g fill="#fff">
    <path
      d="m25.467 49.9a.65.65 0 0 1 -.64-.542 30.58 30.58 0 0 1 -.427-5.083 39.393 39.393 0 0 1 .277-4.686.65.65 0 1 1 1.291.155 38.023 38.023 0 0 0 -.268 4.531 29.238 29.238 0 0 0 .409 4.867.651.651 0 0 1 -.533.75.693.693 0 0 1 -.109.008z" />
    <path
      d="m25.728 37.816a.67.67 0 0 1 -.128-.016.651.651 0 0 1 -.511-.765l.04-.2c.077-.392.155-.783.247-1.159a.65.65 0 0 1 1.263.308c-.087.357-.16.73-.234 1.1l-.04.2a.65.65 0 0 1 -.637.532z" />
  </g>
</svg>
