<svg id="color_line" height="512" viewBox="0 0 74 74" width="512" xmlns="http://www.w3.org/2000/svg"
  data-name="color line">
  <path d="m71 41.359a35.6 35.6 0 0 1 -64.78-29.552z" fill="#ffce6f" />
  <path d="m71 41.36a35.6 35.6 0 0 1 -66.75-5.48 35.584 35.584 0 0 0 63.71 4.09z" fill="#f9c76e" />
  <path d="m64.322 38.312a28.261 28.261 0 0 1 -51.422-23.458z" fill="#ffefc0" />
  <path
    d="m38.571 55.351a28.776 28.776 0 0 1 -26.128-40.705.5.5 0 0 1 .663-.248l51.423 23.459a.5.5 0 0 1 .248.663 28.882 28.882 0 0 1 -26.206 16.831zm-25.421-39.833a27.761 27.761 0 0 0 50.505 23.04z"
    fill="#323c6b" />
  <path d="m52.86 33.077c-3.027 6.627-12.246 9.91-20.1 6.33s-11.422-12.69-8.4-19.317z" fill="#ffce6f" />
  <g fill="#323c6b">
    <path
      d="m39.5 41.355a16.754 16.754 0 0 1 -15.484-10.271 14.016 14.016 0 0 1 -.11-11.2.5.5 0 0 1 .662-.248l28.5 12.988a.5.5 0 0 1 .247.663c-2.315 5.055-7.933 8.068-13.815 8.068zm-14.885-20.6a13.151 13.151 0 0 0 .319 9.94 15.777 15.777 0 0 0 8.026 8.255c7.179 3.271 16.013.634 19.223-5.632z" />
    <path d="m29.393 30.106a.5.5 0 0 1 -.083-.993l1.513-.255a.5.5 0 0 1 .166.986l-1.513.255a.54.54 0 0 1 -.083.007z" />
    <path d="m42.411 36.007a.5.5 0 0 1 -.426-.238l-.805-1.305a.5.5 0 1 1 .852-.525l.805 1.305a.5.5 0 0 1 -.425.763z" />
    <path d="m35.021 34.92a.5.5 0 0 1 -.455-.707l.469-1.036a.5.5 0 1 1 .911.413l-.469 1.036a.5.5 0 0 1 -.456.294z" />
    <path
      d="m10.825 53.875a.5.5 0 0 1 -.36-.153 39.171 39.171 0 0 1 -5.255-6.837.5.5 0 0 1 .855-.519 38.16 38.16 0 0 0 5.121 6.663.5.5 0 0 1 -.36.847z" />
    <path
      d="m4.384 44.875a.5.5 0 0 1 -.444-.269c-.1-.191-.193-.384-.286-.578a.5.5 0 0 1 .9-.431c.087.183.176.367.27.547a.5.5 0 0 1 -.443.731z" />
    <path d="m57.02 32.184a.5.5 0 0 1 -.207-.045l-9.177-4.187a.5.5 0 0 1 .415-.91l9.177 4.187a.5.5 0 0 1 -.208.955z" />
    <path d="m59.338 33.384a.5.5 0 0 1 -.207-.045l-.4-.183a.5.5 0 0 1 .415-.91l.4.183a.5.5 0 0 1 -.208.955z" />
    <path
      d="m38.592 62.7a36.139 36.139 0 0 1 -32.827-51.1.5.5 0 0 1 .663-.248l64.78 29.548a.5.5 0 0 1 .248.663 36.194 36.194 0 0 1 -32.864 21.137zm-32.122-50.229a35.1 35.1 0 0 0 63.864 29.129z" />
  </g>
  <path
    d="m24.75 37.65a.649.649 0 0 1 -.5-.233 18.253 18.253 0 0 1 -3.976-7.971.65.65 0 0 1 1.283-.205 17.187 17.187 0 0 0 3.691 7.343.65.65 0 0 1 -.5 1.066z"
    fill="#fff" />
  <path
    d="m20.221 27.514a.65.65 0 0 1 -.63-.493c-.053-.211-.1-.422-.145-.634a.65.65 0 0 1 1.271-.271c.042.2.085.394.134.589a.649.649 0 0 1 -.473.788.63.63 0 0 1 -.157.021z"
    fill="#fff" />
</svg>
