<svg id="color_line" height="512" viewBox="0 0 74 74" width="512" xmlns="http://www.w3.org/2000/svg"
  data-name="color line">
  <path
    d="m53.892 6.286a30.931 30.931 0 0 0 -7.951 2.168c-14.1 5.586-25.72 16.06-35.772 27.414a32.556 32.556 0 0 0 -5.528 7.76 16.046 16.046 0 0 0 -.067 13.477 13.407 13.407 0 0 0 10.92 7.558c5.073.305 9.716-2.532 14.429-4.433 4.15-1.674 8.567-2.667 12.61-4.586a132.828 132.828 0 0 0 12.6-7.6c3.447-2.688 9.119-8.721 10.412-11.075 2.436-4.436 4.85-9.039 5.448-14.064a15.458 15.458 0 0 0 -4.1-12.915c-3.299-3.472-8.682-4.179-13.001-3.704z"
    fill="#b98c6c" />
  <g opacity=".4">
    <path
      d="m70.99 22.91c-.6 5.02-3.01 9.63-5.45 14.06-1.29 2.36-6.96 8.39-10.41 11.08a133.262 133.262 0 0 1 -12.6 7.59c-4.04 1.92-8.46 2.92-12.61 4.59-4.71 1.9-9.35 4.74-14.43 4.43a13.421 13.421 0 0 1 -10.92-7.55 2.547 2.547 0 0 1 -.11-.24 12.985 12.985 0 0 0 8.33 3.91c5.08.3 9.72-2.53 14.43-4.43 4.15-1.68 8.57-2.67 12.61-4.59a131.3 131.3 0 0 0 12.6-7.6c3.44-2.69 9.12-8.72 10.41-11.07 2.44-4.44 4.85-9.04 5.45-14.07a16.077 16.077 0 0 0 -1.39-9.02 15.475 15.475 0 0 1 4.09 12.91z"
      fill="#9b715b" />
  </g>
  <g fill="#9b715b">
    <path
      d="m4.433 44.233c2.162-1.936 4.6-3.543 6.92-5.259s4.591-3.518 6.827-5.348c4.482-3.653 8.865-7.425 13.059-11.4 2.137-1.946 4.133-4.029 6.375-5.936a23.8 23.8 0 0 1 7.658-4.307c5.55-1.945 11.392-2.491 17.16-2.863-2.87.4-5.746.757-8.579 1.321a46.094 46.094 0 0 0 -8.314 2.259 24.636 24.636 0 0 0 -7.339 4.282c-2.154 1.868-4.152 4-6.28 5.97-4.269 3.934-8.664 7.737-13.266 11.274-2.305 1.765-4.632 3.49-7.022 5.146-2.432 1.592-4.894 3.1-7.199 4.861z" />
    <path
      d="m5.361 58.432a132.2 132.2 0 0 1 14.539-11.018c1.288-.818 2.593-1.61 3.945-2.327s2.715-1.381 4.032-2.107a22.753 22.753 0 0 0 3.712-2.465 19.473 19.473 0 0 0 3.012-3.26c1.825-2.352 3.583-5.028 6.228-6.775a42.012 42.012 0 0 1 8.316-3.89 18.074 18.074 0 0 0 7.455-4.813c1.978-2.235 3.476-5.044 6-6.817-2.374 1.95-3.722 4.726-5.623 7.131a18.622 18.622 0 0 1 -7.534 5.209c-2.782 1.243-5.674 2.216-8.095 3.928-2.467 1.659-4.109 4.207-5.959 6.64a20.45 20.45 0 0 1 -3.189 3.381 23.667 23.667 0 0 1 -3.888 2.529c-1.35.727-2.73 1.372-4.062 2.072s-2.65 1.45-3.95 2.216c-5.193 3.103-10.05 6.762-14.939 10.366z" />
    <path
      d="m3.177 51.66c2.274-1.948 4.619-3.813 7.015-5.618 2.415-1.778 4.908-3.458 7.5-4.992 2.571-1.568 5.347-2.772 7.815-4.362a17.145 17.145 0 0 0 3.344-2.788 43.227 43.227 0 0 0 2.749-3.487 29.052 29.052 0 0 1 2.951-3.476 14.2 14.2 0 0 1 3.817-2.6c2.765-1.317 5.69-2.047 8.37-3.257a12.087 12.087 0 0 0 3.618-2.4l.716-.814.713-.885a17.062 17.062 0 0 1 1.6-1.63 11.953 11.953 0 0 1 3.939-2.243 17.013 17.013 0 0 0 4.13-1.7 15.471 15.471 0 0 1 -4.035 1.948 11.566 11.566 0 0 0 -3.7 2.359 17.592 17.592 0 0 0 -1.49 1.625l-.668.883-.739.9a12.777 12.777 0 0 1 -3.742 2.657c-2.733 1.364-5.677 2.073-8.3 3.382a13.245 13.245 0 0 0 -3.549 2.462 28.608 28.608 0 0 0 -2.818 3.39 44.006 44.006 0 0 1 -2.849 3.532 18.089 18.089 0 0 1 -3.556 2.907c-2.595 1.613-5.327 2.815-7.927 4.263a136.9 136.9 0 0 0 -14.904 9.944z" />
    <path
      d="m12.9 64.166c2.649-1.6 4.321-4.229 6.029-6.737a29.742 29.742 0 0 1 2.852-3.629 21.135 21.135 0 0 1 3.587-2.944c2.558-1.729 5.3-3.068 7.647-4.947 2.37-1.852 4.533-4.058 7.179-5.742 2.649-1.631 5.542-2.7 7.62-4.817 1.05-1.043 1.974-2.285 3.163-3.337a17.933 17.933 0 0 1 3.985-2.408 17.7 17.7 0 0 0 6.471-6.1 56.512 56.512 0 0 0 4.275-8.05 50.559 50.559 0 0 1 -3.863 8.315 18.276 18.276 0 0 1 -6.511 6.512 19.772 19.772 0 0 0 -3.781 2.38c-1.093.983-1.993 2.213-3.093 3.334-2.238 2.3-5.232 3.436-7.734 5.021-2.534 1.573-4.7 3.734-7.154 5.615a87.8 87.8 0 0 1 -7.784 4.87 20.441 20.441 0 0 0 -3.557 2.744 30.193 30.193 0 0 0 -2.908 3.47c-.921 1.212-1.826 2.452-2.851 3.594a12.622 12.622 0 0 1 -3.572 2.856z" />
    <path
      d="m23.165 63.128h.055c.764-1.206 1.448-2.463 2.328-3.608a11.14 11.14 0 0 1 3.231-2.877c1.243-.74 2.549-1.328 3.708-2.1a21.764 21.764 0 0 0 3.135-2.814 11.271 11.271 0 0 1 3.556-2.6c1.375-.581 2.8-.847 4.039-1.4 2.534-1.079 4.235-3.451 6.43-5.374a13.8 13.8 0 0 1 1.8-1.306c.643-.384 1.3-.691 1.931-1.007a11.418 11.418 0 0 0 3.322-2.398c1.924-1.993 3.086-4.624 4.333-7.178a28.628 28.628 0 0 1 4.49-7.353 7.573 7.573 0 0 0 1.254-1.657 5.381 5.381 0 0 0 .488-2.007 35.406 35.406 0 0 1 .244-4.27c-.177 1.423.067 2.841.021 4.284a5.7 5.7 0 0 1 -.411 2.153 7.96 7.96 0 0 1 -1.225 1.818 28.237 28.237 0 0 0 -4.162 7.354 25.745 25.745 0 0 1 -4.371 7.483 12.381 12.381 0 0 1 -3.561 2.616c-.642.329-1.276.636-1.856.991a13.129 13.129 0 0 0 -1.644 1.228c-1.056.9-2.021 1.948-3.083 2.939a12.459 12.459 0 0 1 -3.637 2.511c-1.383.586-2.8.835-4.067 1.359a11.463 11.463 0 0 0 -3.359 2.362 22.307 22.307 0 0 1 -3.324 2.789c-1.245.773-2.571 1.324-3.807 2a10.751 10.751 0 0 0 -3.267 2.619c-.914 1.082-1.679 2.3-2.532 3.443z" />
    <ellipse cx="64.889" cy="12.343" rx="3.02" ry="4.048" transform="matrix(.762 -.647 .647 .762 7.427 44.917)" />
  </g>
  <path
    d="m65.88 16.5a3.916 3.916 0 0 1 -.879-.1 5.3 5.3 0 0 1 -2.8-1.773 5.3 5.3 0 0 1 -1.3-3.047 3.012 3.012 0 0 1 3.867-3.282 5.57 5.57 0 0 1 4.091 4.82 3.167 3.167 0 0 1 -1.036 2.7 2.964 2.964 0 0 1 -1.943.682zm-1.98-7.311a1.983 1.983 0 0 0 -1.31.449 2.194 2.194 0 0 0 -.686 1.873 4.3 4.3 0 0 0 1.06 2.462 4.3 4.3 0 0 0 2.257 1.446 2.02 2.02 0 0 0 2.645-2.244 4.3 4.3 0 0 0 -1.06-2.462 4.294 4.294 0 0 0 -2.257-1.446 2.892 2.892 0 0 0 -.649-.078z"
    fill="#323c6b" />
  <path
    d="m16.25 65.186c-.261 0-.523-.007-.787-.023a13.836 13.836 0 0 1 -11.34-7.839 16.49 16.49 0 0 1 .063-13.9 33.188 33.188 0 0 1 5.608-7.883c12.374-13.98 23.806-22.734 35.963-27.552a30.737 30.737 0 0 1 8.08-2.2c2.656-.292 9.279-.5 13.414 3.859a15.992 15.992 0 0 1 4.235 13.319c-.593 4.98-2.845 9.4-5.506 14.246-1.323 2.41-7.038 8.5-10.542 11.229a131.9 131.9 0 0 1 -12.691 7.658 60.752 60.752 0 0 1 -7.307 2.729c-1.765.574-3.59 1.167-5.33 1.869-1.05.423-2.12.9-3.154 1.37-3.419 1.532-6.946 3.118-10.706 3.118zm37.7-58.4a29.79 29.79 0 0 0 -7.821 2.136c-12.013 4.755-23.32 13.423-35.586 27.278a32.319 32.319 0 0 0 -5.443 7.636 15.479 15.479 0 0 0 -.072 13.051 12.821 12.821 0 0 0 10.5 7.277c3.811.225 7.477-1.419 11.022-3.013 1.043-.469 2.122-.954 3.19-1.385 1.772-.715 3.614-1.313 5.4-1.893a59.97 59.97 0 0 0 7.187-2.681 133.486 133.486 0 0 0 12.5-7.54c3.36-2.62 9.029-8.642 10.281-10.921 2.611-4.754 4.818-9.08 5.39-13.882a15.021 15.021 0 0 0 -3.967-12.512c-2.655-2.8-7.356-4.129-12.579-3.554z"
    fill="#323c6b" />
  <path d="m17.129 37.419a.65.65 0 0 1 -.478-1.091l.715-.768a.65.65 0 1 1 .949.889l-.709.761a.648.648 0 0 1 -.477.209z"
    fill="#fff" />
  <path
    d="m20.266 34.126a.65.65 0 0 1 -.464-1.1c2.805-2.86 5.622-5.49 8.371-7.817a.65.65 0 1 1 .84.992c-2.718 2.3-5.505 4.9-8.283 7.735a.647.647 0 0 1 -.464.19z"
    fill="#fff" />
</svg>
