<svg id="color_line" height="512" viewBox="0 0 74 74" width="512" xmlns="http://www.w3.org/2000/svg"
  data-name="color line">
  <path d="m11.5 24.258-2.21 2.53-3.12-1.74c.04-3.38-3.09-8.86-3.09-8.86l5.43-1.08z" fill="#9297ab" />
  <path
    d="m9.286 27.289a.5.5 0 0 1 -.244-.063l-3.12-1.74a.5.5 0 0 1 -.256-.442c.038-3.2-2.994-8.552-3.024-8.606a.5.5 0 0 1 .336-.738l5.43-1.08a.5.5 0 0 1 .573.335l2.99 9.15a.5.5 0 0 1 -.1.484l-2.21 2.53a.5.5 0 0 1 -.375.17zm-2.624-2.537 2.514 1.4 1.757-2.011-2.765-8.455-4.327.86c.792 1.49 2.717 5.385 2.821 8.206z"
    fill="#323c6b" />
  <path
    d="m70.985 38.418a2.87 2.87 0 0 1 -.29.71c-4.27 7.25-10.39 12.7-18.83 15.25-24.32 6.34-39.99-9.9-42.12-12.57-2.85-3.58-5.59-9.05-3.72-15.71a3.813 3.813 0 0 0 .14-1.05l3.12 1.74 2.21-2.53c13.7 15.29 39.74 19.98 55.7 11.16a2.283 2.283 0 0 1 .7-.26l-.51 1.62a1.4 1.4 0 0 0 1.44 1.81z"
    fill="#fcd462" />
  <path
    d="m70.99 38.42a2.87 2.87 0 0 1 -.29.71c-4.27 7.25-10.39 12.7-18.83 15.25-24.32 6.34-39.99-9.9-42.12-12.57a22.3 22.3 0 0 1 -1.37-1.91 42.04 42.04 0 0 0 40.64 10.95c8.32-2.51 14.39-7.85 18.65-14.95l-.28.88a1.4 1.4 0 0 0 1.44 1.81z"
    fill="#f7be56" />
  <g fill="#323c6b">
    <path
      d="m42.206 47.116a38.829 38.829 0 0 1 -9.025-1.043 40.518 40.518 0 0 1 -16.122-8.129 29.7 29.7 0 0 1 -7.432-9.386l-.784-1.538a.5.5 0 1 1 .891-.454l.784 1.536a28.7 28.7 0 0 0 7.182 9.072 39.5 39.5 0 0 0 15.714 7.926 41.441 41.441 0 0 0 36.568-9.583.5.5 0 0 1 .674.738 42.808 42.808 0 0 1 -28.45 10.861z" />
    <path
      d="m8.49 45.4a.5.5 0 0 1 -.362-.155c-.728-.769-1.115-1.245-1.119-1.252a24.048 24.048 0 0 1 -4.053-7.313.5.5 0 1 1 .948-.317 23.056 23.056 0 0 0 3.885 7c.018.022.383.469 1.063 1.184a.5.5 0 0 1 -.362.845z" />
    <path
      d="m2.792 34.677a.5.5 0 0 1 -.49-.4c-.092-.458-.17-.918-.229-1.379a.5.5 0 1 1 .992-.127c.056.438.13.874.218 1.309a.5.5 0 0 1 -.392.589.491.491 0 0 1 -.099.008z" />
    <path
      d="m49.95 37.285a.5.5 0 0 1 -.017-1 38.2 38.2 0 0 0 10.611-1.8.5.5 0 0 1 .313.949 39.166 39.166 0 0 1 -10.889 1.853z" />
    <path
      d="m63.389 34.435a.5.5 0 0 1 -.2-.958c.4-.174.784-.361 1.169-.549a.5.5 0 1 1 .438.9c-.4.193-.8.386-1.206.565a.5.5 0 0 1 -.201.042z" />
  </g>
  <path
    d="m70.985 38.418-2.16.17a1.4 1.4 0 0 1 -1.44-1.81l.51-1.62a2.571 2.571 0 0 1 .55-.06 2.6 2.6 0 0 1 1.87.79 2.645 2.645 0 0 1 .67 2.53z"
    fill="#84879c" />
  <path
    d="m68.712 39.093a1.884 1.884 0 0 1 -1.467-.7 1.91 1.91 0 0 1 -.338-1.757l.512-1.625a.5.5 0 0 1 .369-.338 3.137 3.137 0 0 1 3.682 3.874.5.5 0 0 1 -.445.374l-2.16.17c-.051 0-.102.002-.153.002zm-.434-3.488-.417 1.323a.9.9 0 0 0 .162.833.857.857 0 0 0 .761.328l1.777-.14a2.123 2.123 0 0 0 -.6-1.711 2.1 2.1 0 0 0 -1.682-.633z"
    fill="#323c6b" />
  <path
    d="m40.711 56.349c-19.739 0-31.223-14.061-31.356-14.228-2.815-3.537-5.762-9.21-3.811-16.157a3.325 3.325 0 0 0 .122-.915.5.5 0 0 1 .744-.437l2.766 1.543 1.944-2.226a.5.5 0 0 1 .374-.171.507.507 0 0 1 .375.167c13.246 14.785 38.986 19.951 55.085 11.056a2.73 2.73 0 0 1 .839-.312.5.5 0 0 1 .58.64l-.51 1.62a.9.9 0 0 0 .162.833.857.857 0 0 0 .761.328l2.161-.17a.506.506 0 0 1 .421.176.5.5 0 0 1 .1.444 3.34 3.34 0 0 1 -.34.835c-4.613 7.836-11.045 13.043-19.118 15.482a44.654 44.654 0 0 1 -11.299 1.492zm-34.117-30.489a3.85 3.85 0 0 1 -.088.378c-1.836 6.535.961 11.906 3.631 15.262.153.192 15.648 19.164 41.6 12.4 7.77-2.348 13.987-7.366 18.462-14.913l-1.336.1a1.9 1.9 0 0 1 -1.958-2.454l.186-.589c-16.347 8.756-42.049 3.638-55.591-11.034l-1.838 2.108a.5.5 0 0 1 -.62.107z"
    fill="#323c6b" />
  <path
    d="m38.2 50.142h-.064a39.733 39.733 0 0 1 -10.268-2.5.65.65 0 0 1 .463-1.215 38.424 38.424 0 0 0 9.931 2.417.65.65 0 0 1 -.062 1.3z"
    fill="#fff" />
  <path
    d="m41.291 50.3a.65.65 0 0 1 -.007-1.3c.176 0 .643-.015.816-.021a.65.65 0 1 1 .05 1.3c-.181.007-.669.02-.852.022z"
    fill="#fff" />
</svg>
