<svg id="color_line" height="512" viewBox="0 0 74 74" width="512" xmlns="http://www.w3.org/2000/svg"
  data-name="color line">
  <path
    d="m74.94 31.98c0 19.45-17.76 36.687-37.21 36.687s-37.21-17.237-37.21-36.687h12.7l1.94 5.28 3.17 1.3 2.2-2.4 2.78.13 6.41-4.31z"
    fill="#6fc666" />
  <path
    d="m74.94 31.98c0 19.45-17.76 36.69-37.21 36.69a34.173 34.173 0 0 1 -10.65-1.72 33.21 33.21 0 0 0 6.23.59c19.07 0 36.52-16.58 37.19-35.56z"
    fill="#65b54e" />
  <path d="m69.14 31.98v.07a31.418 31.418 0 0 1 -62.82 0v-.07h6.9l1.94 5.28 3.17 1.3 2.2-2.4 2.78.13 6.41-4.31z"
    fill="#fff" />
  <path
    d="m37.73 63.24a32.106 32.106 0 0 1 -31.91-31.178.582.582 0 0 1 .143-.4.538.538 0 0 1 .357-.186h6.9a.5.5 0 0 1 .47.328l1.864 5.073 2.646 1.088 1.965-2.143a.483.483 0 0 1 .392-.162l2.614.122 6.272-4.218a.5.5 0 0 1 .279-.085h39.418a.5.5 0 0 1 .5.5v.07a32.121 32.121 0 0 1 -31.91 31.191zm-30.894-30.76a31.114 31.114 0 0 0 30.894 29.76 31.116 31.116 0 0 0 30.9-29.76h-38.758l-6.283 4.225a.483.483 0 0 1 -.3.084l-2.549-.119-2.04 2.23a.5.5 0 0 1 -.558.125l-3.17-1.3a.5.5 0 0 1 -.28-.29l-1.821-4.955z"
    fill="#323c6b" />
  <path d="m66.14 31.98a28.418 28.418 0 0 1 -56.82 0h3.9l1.94 5.28 3.17 1.3 2.2-2.4 2.78.13 6.41-4.31z"
    fill="#fe7058" />
  <g fill="#323c6b">
    <path
      d="m37.73 60.24a29.082 29.082 0 0 1 -28.91-28.249.5.5 0 0 1 .5-.511h3.9a.5.5 0 0 1 .47.328l1.864 5.073 2.646 1.084 1.965-2.143a.483.483 0 0 1 .392-.162l2.614.122 6.272-4.218a.5.5 0 0 1 .279-.085h36.418a.5.5 0 0 1 .5.512 29.1 29.1 0 0 1 -28.91 28.249zm-27.893-27.76a27.917 27.917 0 0 0 55.786 0h-35.751l-6.283 4.225a.483.483 0 0 1 -.3.084l-2.549-.119-2.04 2.23a.5.5 0 0 1 -.558.125l-3.17-1.3a.5.5 0 0 1 -.28-.29l-1.821-4.955z" />
    <path d="m21.014 46.5a.5.5 0 0 1 -.372-.834l.909-1.011a.5.5 0 0 1 .744.668l-.909 1.011a.5.5 0 0 1 -.372.166z" />
    <path
      d="m31.789 52.193a.489.489 0 0 1 -.118-.014.5.5 0 0 1 -.367-.6l.322-1.32a.5.5 0 1 1 .971.237l-.322 1.32a.5.5 0 0 1 -.486.377z" />
    <path
      d="m43.667 52.193a.5.5 0 0 1 -.485-.381l-.323-1.319a.5.5 0 0 1 .971-.239l.323 1.321a.5.5 0 0 1 -.367.6.489.489 0 0 1 -.119.018z" />
    <path d="m54.442 46.5a.5.5 0 0 1 -.372-.166l-.909-1.011a.5.5 0 0 1 .744-.668l.909 1.011a.5.5 0 0 1 -.372.834z" />
    <path d="m27.723 39.991a.5.5 0 0 1 -.371-.834l.543-.6a.5.5 0 0 1 .744.669l-.545.6a.5.5 0 0 1 -.371.165z" />
    <path
      d="m34.173 43.4a.489.489 0 0 1 -.118-.014.5.5 0 0 1 -.367-.6l.193-.791a.5.5 0 1 1 .971.237l-.193.791a.5.5 0 0 1 -.486.377z" />
    <path
      d="m41.283 43.4a.5.5 0 0 1 -.485-.381l-.193-.791a.5.5 0 1 1 .971-.237l.193.791a.5.5 0 0 1 -.367.6.489.489 0 0 1 -.119.018z" />
    <path d="m47.733 39.991a.5.5 0 0 1 -.371-.166l-.545-.6a.5.5 0 0 1 .744-.669l.543.6a.5.5 0 0 1 -.371.834z" />
    <path
      d="m11.325 62.094a.5.5 0 0 1 -.325-.124 39.094 39.094 0 0 1 -6.327-7.064.5.5 0 1 1 .82-.571 38.167 38.167 0 0 0 6.165 6.883.5.5 0 0 1 -.329.876z" />
    <path d="m3.539 52.7a.5.5 0 0 1 -.437-.258l-.264-.475a.5.5 0 0 1 .869-.5l.27.486a.5.5 0 0 1 -.437.742z" />
    <path d="m49.639 29.482h-.847a.5.5 0 0 1 0-1h.847a.5.5 0 0 1 0 1z" />
    <path d="m62.585 29.482h-10.285a.5.5 0 0 1 0-1h10.285a.5.5 0 0 1 0 1z" />
    <path
      d="m37.73 69.167c-19.736 0-37.71-17.725-37.71-37.187a.5.5 0 0 1 .5-.5h12.7a.5.5 0 0 1 .47.328l1.864 5.073 2.646 1.084 1.965-2.143a.483.483 0 0 1 .392-.162l2.614.122 6.272-4.218a.5.5 0 0 1 .279-.085h45.218a.5.5 0 0 1 .5.5c0 19.463-17.973 37.188-37.71 37.188zm-36.707-36.687c.3 18.742 17.663 35.687 36.707 35.687s36.4-16.945 36.706-35.687h-44.564l-6.283 4.225a.483.483 0 0 1 -.3.084l-2.549-.119-2.04 2.23a.5.5 0 0 1 -.558.125l-3.17-1.3a.5.5 0 0 1 -.28-.29l-1.821-4.955z" />
  </g>
  <path
    d="m46.312 55.1a.65.65 0 0 1 -.264-1.245 20.779 20.779 0 0 0 5.818-3.844.65.65 0 0 1 .891.947 22.085 22.085 0 0 1 -6.182 4.085.647.647 0 0 1 -.263.057z"
    fill="#fff" />
  <path
    d="m42.537 56.359a.65.65 0 0 1 -.146-1.283q.347-.08.688-.172a.65.65 0 0 1 .342 1.255q-.366.1-.736.184a.666.666 0 0 1 -.148.016z"
    fill="#fff" />
</svg>
