<svg id="color_line" height="512" viewBox="0 0 74 74" width="512" xmlns="http://www.w3.org/2000/svg"
  data-name="color line">
  <path
    d="m64.207 57.649a37.1 37.1 0 0 1 -20.173 11.384c-18.834 3.718-36.934-7.66-40.444-25.414s8.984-35.061 27.81-38.78"
    fill="#b98c6c" />
  <path
    d="m64.21 57.65a37.063 37.063 0 0 1 -20.18 11.38c-18.83 3.72-36.93-7.66-40.44-25.41a31.073 31.073 0 0 1 -.51-8.18c.08.71.2 1.42.34 2.14 3.51 17.76 21.61 29.14 40.44 25.42a37.342 37.342 0 0 0 17.98-9.16z"
    fill="#9b715b" />
  <ellipse cx="43.609" cy="33.414" fill="#c1dc83" rx="24.233" ry="31.82"
    transform="matrix(.785 -.619 .619 .785 -11.324 34.172)" />
  <path
    d="m63.31 58.4c-7.09 5.59-17.28 5.38-26.5.41 7.79 2.71 15.75 2.04 21.6-2.57 10.52-8.28 10.22-26.19-.66-39.99a39.611 39.611 0 0 0 -12.24-10.39 38.021 38.021 0 0 1 17.13 12.55c10.88 13.8 11.18 31.71.67 39.99z"
    fill="#bed86b" />
  <ellipse cx="43.69" cy="33.357" fill="#e0ecb7" rx="6.271" ry="9.018"
    transform="matrix(.867 -.498 .498 .867 -10.81 26.199)" />
  <g fill="#323c6b">
    <path
      d="m45.868 42.273c-2.851 0-6.066-2.093-8.049-5.543-2.614-4.551-2.108-9.766 1.129-11.626s8 .33 10.612 4.881a11.752 11.752 0 0 1 1.649 6.736 5.964 5.964 0 0 1 -2.778 4.89 5.09 5.09 0 0 1 -2.563.662zm-7.182-6.041c2.34 4.073 6.488 6.1 9.247 4.511a5 5 0 0 0 2.279-4.108 10.741 10.741 0 0 0 -1.52-6.152c-2.339-4.072-6.486-6.1-9.247-4.512s-3.1 6.188-.76 10.261z" />
    <path d="m34.113 27.3a.489.489 0 0 1 -.161-.027l-4.982-1.7a.5.5 0 1 1 .322-.946l4.982 1.7a.5.5 0 0 1 -.161.973z" />
    <path
      d="m36.05 24.477a.5.5 0 0 1 -.391-.187l-2.224-2.778a.5.5 0 0 1 .781-.625l2.224 2.778a.5.5 0 0 1 -.078.7.494.494 0 0 1 -.312.112z" />
    <path
      d="m39.464 22.714a.5.5 0 0 1 -.482-.37l-1.4-5.182a.5.5 0 1 1 .965-.26l1.4 5.182a.5.5 0 0 1 -.353.613.5.5 0 0 1 -.13.017z" />
    <path
      d="m42.967 22.354h-.048a.5.5 0 0 1 -.451-.544l.354-3.792a.494.494 0 0 1 .545-.452.5.5 0 0 1 .451.544l-.354 3.79a.5.5 0 0 1 -.497.454z" />
    <path d="m30.534 30.893a.5.5 0 0 1 -.04-1l2.641-.218a.517.517 0 0 1 .539.458.5.5 0 0 1 -.457.54l-2.641.218z" />
    <path
      d="m28.892 35.358a.5.5 0 0 1 -.125-.984l4.312-1.116a.5.5 0 1 1 .25.968l-4.312 1.116a.483.483 0 0 1 -.125.016z" />
    <path d="m32.631 38.652a.5.5 0 0 1 -.217-.95l1.605-.774a.5.5 0 1 1 .434.9l-1.605.774a.489.489 0 0 1 -.217.05z" />
    <path d="m32.888 43.269a.5.5 0 0 1 -.294-.9l3.144-2.288a.5.5 0 1 1 .588.809l-3.144 2.288a.5.5 0 0 1 -.294.091z" />
    <path d="m37.705 45.035a.5.5 0 0 1 -.42-.771l1.01-1.564a.5.5 0 1 1 .84.542l-1.01 1.564a.5.5 0 0 1 -.42.229z" />
    <path
      d="m40.913 49.383a.5.5 0 0 1 -.494-.584l.8-4.68a.507.507 0 0 1 .577-.409.5.5 0 0 1 .409.577l-.8 4.68a.5.5 0 0 1 -.492.416z" />
    <path
      d="m45.839 47.666a.5.5 0 0 1 -.5-.459l-.191-2.32a.5.5 0 0 1 .457-.54.517.517 0 0 1 .539.458l.191 2.32a.5.5 0 0 1 -.457.54z" />
    <path d="m50.856 47.707a.5.5 0 0 1 -.443-.27l-1.559-3a.5.5 0 1 1 .887-.461l1.559 3a.5.5 0 0 1 -.443.73z" />
    <path d="m53.149 43.757a.5.5 0 0 1 -.209-.046l-1.361-.628a.5.5 0 1 1 .421-.908l1.361.628a.5.5 0 0 1 -.209.954z" />
    <path d="m56.589 41.17a.483.483 0 0 1 -.1-.01l-3.589-.716a.5.5 0 0 1 .2-.98l3.591.717a.5.5 0 0 1 -.1.99z" />
    <path d="m53.524 37.277a.5.5 0 0 1 -.033-1l1.558-.107a.51.51 0 0 1 .533.465.5.5 0 0 1 -.465.533l-1.558.107z" />
    <path d="m53.266 34.15a.5.5 0 0 1 -.078-.994l3.317-.531a.5.5 0 1 1 .158.987l-3.317.531a.5.5 0 0 1 -.08.007z" />
    <path d="m52.623 31.184a.5.5 0 0 1 -.151-.977l1.338-.424a.5.5 0 1 1 .3.953l-1.338.424a.5.5 0 0 1 -.149.024z" />
    <path d="m51.561 28.534a.5.5 0 0 1 -.214-.952l3.569-1.687a.5.5 0 0 1 .428.9l-3.569 1.688a.5.5 0 0 1 -.214.051z" />
    <path d="m49.808 26.089a.5.5 0 0 1 -.326-.879l1.463-1.26a.5.5 0 0 1 .652.758l-1.463 1.26a.5.5 0 0 1 -.326.121z" />
    <path d="m47.753 24.3a.5.5 0 0 1 -.353-.854l2.485-2.472a.5.5 0 1 1 .705.709l-2.485 2.467a.5.5 0 0 1 -.352.15z" />
    <path d="m45.776 22.615a.5.5 0 0 1 -.447-.724l.514-1.028a.5.5 0 1 1 .895.447l-.514 1.028a.5.5 0 0 1 -.448.277z" />
    <path d="m29.972 72.613a.5.5 0 0 1 -.093-.009l-.282-.052a.5.5 0 0 1 .182-.983l.284.053a.5.5 0 0 1 -.091.991z" />
    <path
      d="m26.938 71.945a.493.493 0 0 1 -.127-.017 38.194 38.194 0 0 1 -10.577-4.568.5.5 0 0 1 .531-.848 37.193 37.193 0 0 0 10.3 4.449.5.5 0 0 1 -.127.983z" />
    <path
      d="m9.333 14.5a.5.5 0 0 1 -.372-.834c.2-.217.392-.432.593-.645a.5.5 0 0 1 .727.688c-.2.207-.386.415-.575.626a.5.5 0 0 1 -.373.165z" />
    <path
      d="m11.625 12.25a.5.5 0 0 1 -.352-.856 38.077 38.077 0 0 1 8.916-6.322.5.5 0 1 1 .455.89 37.874 37.874 0 0 0 -8.668 6.144.5.5 0 0 1 -.351.144z" />
    <path
      d="m50.752 63.05c-9.146 0-19.3-5.105-26.566-14.323a37.708 37.708 0 0 1 -8.463-22.365c-.13-7.713 2.668-14.222 7.877-18.329s12.191-5.306 19.661-3.382a37.711 37.711 0 0 1 19.771 13.449c11.033 14 11.3 32.25.587 40.694a20.473 20.473 0 0 1 -12.867 4.256zm-25.781-14.943c10.692 13.561 27.75 18 38.029 9.9s9.938-25.727-.753-39.29a36.707 36.707 0 0 0 -19.236-13.097c-7.159-1.846-13.833-.71-18.792 3.2s-7.62 10.133-7.5 17.527a36.71 36.71 0 0 0 8.249 21.763z" />
    <path
      d="m36.839 70.241a35.679 35.679 0 0 1 -19.039-5.441 32.135 32.135 0 0 1 -14.7-21.084c-3.542-17.936 9.112-35.596 28.208-39.368a.5.5 0 0 1 .193.981c-18.555 3.665-30.855 20.798-27.421 38.193a31.143 31.143 0 0 0 14.251 20.433 35.112 35.112 0 0 0 25.606 4.587 36.8 36.8 0 0 0 19.9-11.227.5.5 0 1 1 .744.668 37.551 37.551 0 0 1 -27.74 12.258z" />
  </g>
  <path
    d="m17.329 47.15a.649.649 0 0 1 -.549-.3 39.653 39.653 0 0 1 -4.614-10.04.65.65 0 0 1 1.246-.369 38.367 38.367 0 0 0 4.464 9.71.649.649 0 0 1 -.547 1z"
    fill="#fff" />
  <path
    d="m12.066 34.4a.65.65 0 0 1 -.636-.519c-.1-.468-.174-.935-.251-1.4a.65.65 0 0 1 1.283-.211c.073.449.148.9.241 1.349a.651.651 0 0 1 -.506.768.671.671 0 0 1 -.131.013z"
    fill="#fff" />
</svg>
