<svg id="color_line" height="512" viewBox="0 0 74 74" width="512" xmlns="http://www.w3.org/2000/svg"
  data-name="color line">
  <path
    d="m22.478 39.75c3.973.929 9.093 3.137 5.3 10.681-4.378 7.533-13.008 10.927-19.137 7.361s-7.441-12.742-3.059-20.276c4.685-7.025 9.135-3.664 11.906-.67a9.845 9.845 0 0 0 4.99 2.904z"
    fill="#fe7058" />
  <path
    d="m19.766 39.172a.5.5 0 0 1 -.277-.917c.171-.114 17.109-11.612 17.2-31.625a.5.5 0 0 1 .5-.5.5.5 0 0 1 .5.5c-.1 20.556-17.476 32.336-17.651 32.453a.5.5 0 0 1 -.272.089z"
    fill="#323c6b" />
  <path
    d="m51.522 48.273c-3.973.929-9.093 3.137-5.3 10.681 4.378 7.534 13.008 10.928 19.137 7.361s7.441-12.742 3.059-20.275c-4.685-7.025-9.135-3.664-11.906-.67a9.845 9.845 0 0 1 -4.99 2.903z"
    fill="#fe7058" />
  <path
    d="m27.78 50.43c-4.38 7.53-13.01 10.93-19.14 7.36a9.882 9.882 0 0 1 -1.25-.86c5.93 2.1 13.41-1.33 17.39-8.17 2.16-4.3 1.43-6.86-.33-8.44 3.42 1.21 6.51 3.79 3.33 10.11z"
    fill="#ea6453" />
  <path
    d="m65.36 66.32c-4.13 2.4-9.39 1.64-13.72-1.41a11.786 11.786 0 0 0 10.72-.27c6.13-3.56 7.44-12.74 3.06-20.27a13.979 13.979 0 0 0 -1.96-2.38c1.58.31 3.25 1.49 4.96 4.05 4.38 7.53 3.07 16.71-3.06 20.28z"
    fill="#ea6453" />
  <path
    d="m54.235 47.7a.5.5 0 0 1 -.382-.177c-.17-.2-17.062-20.411-17.159-40.882a.5.5 0 0 1 .5-.5.5.5 0 0 1 .5.5c.1 20.112 16.754 40.042 16.923 40.242a.5.5 0 0 1 -.381.823z"
    fill="#323c6b" />
  <path
    d="m42.007 13.694c2.147 3.437 6.543 5.949 11.206 7.392s10.64.757 15.544 1.257c-3.324-4.317-5.984-10.038-17.184-14.481-3.723-1.477-10.589-2.462-14.38-1.262 1.054.792 4.031 5.839 4.814 7.094z"
    fill="#00a651" />
  <g fill="#323c6b">
    <path
      d="m68.757 22.843h-.051c-1.737-.177-3.583-.2-5.537-.231-3.463-.049-7.045-.1-10.1-1.046-3.117-.965-8.752-3.236-11.482-7.605-.12-.192-.291-.471-.5-.811-1.011-1.658-3.377-5.535-4.193-6.15a.5.5 0 0 1 .147-.877c3.823-1.213 10.695-.323 14.717 1.277 9.659 3.833 13.134 8.711 15.926 12.631.5.7.975 1.369 1.469 2.01a.5.5 0 0 1 -.4.805zm-30.614-15.973a60.832 60.832 0 0 1 3.8 5.757l.491.8c1.868 2.991 5.852 5.608 10.929 7.18 2.921.9 6.43.954 9.823 1 1.5.021 3.044.043 4.508.142-.272-.373-.544-.755-.821-1.144-2.857-4.011-6.1-8.558-15.481-12.281-3.518-1.391-9.551-2.25-13.249-1.454z" />
    <path
      d="m16.666 32.626a.5.5 0 0 1 -.281-.086 8.742 8.742 0 0 0 -4.915-1.68 7.127 7.127 0 0 0 -1.96.283.5.5 0 1 1 -.271-.963 8.892 8.892 0 0 1 7.708 1.533.5.5 0 0 1 -.282.914z" />
    <path
      d="m66.869 69.206a.5.5 0 0 1 -.252-.932 13.328 13.328 0 0 0 5.377-6.019.5.5 0 0 1 .908.418 14.316 14.316 0 0 1 -5.782 6.465.5.5 0 0 1 -.251.068z" />
    <path
      d="m63.953 70.445a.5.5 0 0 1 -.141-.98l.193-.055c.152-.043.3-.085.453-.138a.5.5 0 1 1 .334.942c-.169.06-.341.109-.514.158l-.184.053a.5.5 0 0 1 -.141.02z" />
    <path
      d="m6.917 32.331a.5.5 0 0 1 -.278-.916c.122-.082.245-.155.369-.228l.125-.074a.5.5 0 0 1 .516.856l-.131.079c-.108.064-.216.127-.323.2a.5.5 0 0 1 -.278.083z" />
    <path
      d="m59.959 68.243a13.871 13.871 0 0 1 -5-.979 18.539 18.539 0 0 1 -9.166-8.058c-1.493-2.958-1.788-5.406-.893-7.306 1.218-2.6 4.3-3.591 6.513-4.109a9.317 9.317 0 0 0 4.737-2.756c1.543-1.667 3.928-3.862 6.791-3.631 2.093.166 4.078 1.634 5.9 4.363a18.556 18.556 0 0 1 2.492 11.976 12.125 12.125 0 0 1 -5.714 9.009 11.142 11.142 0 0 1 -5.66 1.491zm-8.323-19.483c-3.15.737-5.059 1.9-5.834 3.559-.753 1.611-.462 3.768.867 6.411a17.517 17.517 0 0 0 8.648 7.6 10.588 10.588 0 0 0 15.02-8.739 17.537 17.537 0 0 0 -2.351-11.3c-1.625-2.435-3.356-3.754-5.129-3.9-1.827-.152-3.78.938-5.977 3.313a10.319 10.319 0 0 1 -5.244 3.05z" />
    <path
      d="m14.041 59.72a11.141 11.141 0 0 1 -5.651-1.5 12.125 12.125 0 0 1 -5.714-9.009 18.538 18.538 0 0 1 2.474-11.946c1.836-2.755 3.821-4.223 5.914-4.389 2.861-.233 5.247 1.963 6.791 3.631a9.322 9.322 0 0 0 4.737 2.757c2.213.518 5.295 1.506 6.513 4.109.89 1.9.594 4.353-.879 7.284a18.558 18.558 0 0 1 -9.18 8.084 13.873 13.873 0 0 1 -5.005.979zm-2.573-25.86q-.163 0-.324.013c-1.772.141-3.5 1.46-5.145 3.921a17.519 17.519 0 0 0 -2.335 11.274 11.147 11.147 0 0 0 5.228 8.292 11.147 11.147 0 0 0 9.792.448 17.536 17.536 0 0 0 8.663-7.628c1.314-2.617 1.605-4.773.852-6.384-.776-1.658-2.684-2.822-5.834-3.559a10.321 10.321 0 0 1 -5.244-3.051c-2.068-2.235-3.921-3.327-5.654-3.327z" />
  </g>
</svg>
